<svg width="283" height="48" viewBox="0 0 283 48" fill="none" xmlns="http://www.w3.org/2000/svg">
<path d="M1 1V47M1 1H47M1 1L13.5991 11.7993C13.7804 11.9546 14.0112 12.04 14.2499 12.04H34.649C34.9004 12.04 35.1426 11.9453 35.3273 11.7748L47 1M1 47H47M1 47L13.5922 35.3072C13.7772 35.1355 14.0203 35.04 14.2727 35.04H34.6258C34.891 35.04 35.1454 35.1454 35.3329 35.3329L47 47M47 47V1" stroke="white" stroke-width="2"/>
<path d="M12.9609 34.04V13.04C12.9609 12.4878 13.4087 12.04 13.9609 12.04H34.9609C35.5132 12.04 35.9609 12.4878 35.9609 13.04V34.04C35.9609 34.5923 35.5132 35.04 34.9609 35.04H13.9609C13.4087 35.04 12.9609 34.5923 12.9609 34.04Z" stroke="white" stroke-width="2"/>
<path d="M88.36 39.4C80.4 39.4 73.8 33.56 73.8 24.8C73.8 16.04 80.4 10.2 88.36 10.2C92.04 10.2 96.64 11.44 99.64 16.08L96.36 18.4C94.28 15.52 91.24 14.52 88.48 14.52C82.92 14.52 78.44 18.56 78.44 24.8C78.44 31.08 82.96 35.08 88.52 35.08C91.32 35.08 94.28 34.08 96.36 31.2L99.64 33.52C96.64 38.16 92.04 39.4 88.36 39.4ZM103.223 39V18.2H107.623V23.56C108.343 20.44 110.423 17.8 114.223 17.8C114.703 17.8 115.103 17.84 115.543 17.96V22.16C115.103 22.08 114.743 22.04 114.263 22.04C110.303 22.04 107.623 24.92 107.623 29.28V39H103.223ZM128.062 39.4C122.422 39.4 117.302 35.52 117.302 28.6C117.302 21.6 122.462 17.8 127.742 17.8C133.022 17.8 138.782 21.56 137.782 30.28H121.462C122.142 33.88 124.982 35.72 128.542 35.72C130.782 35.72 132.782 35 134.302 33.56L136.382 35.72C134.582 37.96 131.582 39.4 128.062 39.4ZM121.422 27H133.862C133.622 23.4 130.742 21.56 127.782 21.56C124.862 21.56 122.062 23.32 121.422 27ZM150.389 39.4C145.469 39.4 140.309 35.76 140.309 28.6C140.309 21.44 145.469 17.8 150.389 17.8C154.189 17.8 156.829 19.88 157.589 21.52H157.709V18.2H162.109V39H157.709V35.68H157.589C156.829 37.32 154.189 39.4 150.389 39.4ZM144.669 28.6C144.669 33.08 147.909 35.4 151.229 35.4C154.589 35.4 157.829 33.08 157.829 28.6C157.829 24.12 154.589 21.8 151.229 21.8C147.909 21.8 144.669 24.12 144.669 28.6ZM173.785 39.24C170.625 39.24 168.385 37.68 168.385 33.96V21.76H165.505V18.2H168.385V12.88H172.825V18.2H177.025V21.76H172.825V33.16C172.825 34.36 173.465 35.28 175.105 35.28C175.585 35.28 176.265 35.2 177.025 34.92V38.4C176.265 39.04 174.905 39.24 173.785 39.24ZM190.171 39.4C184.531 39.4 179.411 35.52 179.411 28.6C179.411 21.6 184.571 17.8 189.851 17.8C195.131 17.8 200.891 21.56 199.891 30.28H183.571C184.251 33.88 187.091 35.72 190.651 35.72C192.891 35.72 194.891 35 196.411 33.56L198.491 35.72C196.691 37.96 193.691 39.4 190.171 39.4ZM183.531 27H195.971C195.731 23.4 192.851 21.56 189.891 21.56C186.971 21.56 184.171 23.32 183.531 27ZM203.419 39V10.6H213.499C218.419 10.6 221.219 13.64 221.219 17.36C221.219 20.2 219.539 22.32 217.259 23.2C220.459 24 222.939 26.52 222.939 30.76C222.939 35.6 219.699 39 213.219 39H203.419ZM207.939 35H212.939C216.659 35 218.459 33.24 218.459 30.32C218.459 27.44 216.659 25.44 212.859 25.44H207.939V35ZM207.939 21.92H212.579C215.419 21.92 216.859 20.36 216.859 18.16C216.859 15.96 215.419 14.6 212.579 14.6H207.939V21.92ZM236.385 39.4C230.985 39.4 225.505 35.6 225.505 28.6C225.505 21.6 230.985 17.8 236.385 17.8C241.785 17.8 247.265 21.6 247.265 28.6C247.265 35.6 241.785 39.4 236.385 39.4ZM229.865 28.6C229.865 32.88 232.985 35.36 236.385 35.36C239.785 35.36 242.865 32.88 242.865 28.6C242.865 24.32 239.785 21.84 236.385 21.84C232.985 21.84 229.865 24.32 229.865 28.6ZM256.419 39.4C252.419 39.4 249.499 37.36 248.859 33.68L252.459 32.68C252.899 34.44 254.219 35.84 256.379 35.84C258.019 35.84 259.619 35 259.619 33.16C259.619 31.84 258.739 31.04 256.739 30.24L254.499 29.4C251.059 28.08 249.619 25.96 249.619 23.52C249.619 20 252.699 17.8 256.459 17.8C260.019 17.8 262.619 19.76 263.339 22.8L259.859 23.72C259.259 22.04 258.099 21.32 256.659 21.32C255.059 21.32 253.939 22.2 253.939 23.56C253.939 24.64 254.619 25.56 256.499 26.24L258.539 27.04C261.419 28.12 264.019 29.6 264.019 33.16C264.019 37.32 260.499 39.4 256.419 39.4ZM273.763 39.4C269.763 39.4 266.843 37.36 266.203 33.68L269.803 32.68C270.243 34.44 271.563 35.84 273.723 35.84C275.363 35.84 276.963 35 276.963 33.16C276.963 31.84 276.083 31.04 274.083 30.24L271.843 29.4C268.403 28.08 266.963 25.96 266.963 23.52C266.963 20 270.043 17.8 273.803 17.8C277.363 17.8 279.963 19.76 280.683 22.8L277.203 23.72C276.603 22.04 275.443 21.32 274.003 21.32C272.403 21.32 271.283 22.2 271.283 23.56C271.283 24.64 271.963 25.56 273.843 26.24L275.883 27.04C278.763 28.12 281.363 29.6 281.363 33.16C281.363 37.32 277.843 39.4 273.763 39.4Z" fill="white"/>
</svg>
