<svg width="50" height="50" viewBox="0 0 50 50" fill="none" xmlns="http://www.w3.org/2000/svg">
<path d="M2 2V48M2 2H48M2 2L14.5991 12.7993C14.7804 12.9546 15.0112 13.04 15.2499 13.04H35.649C35.9004 13.04 36.1426 12.9453 36.3273 12.7748L48 2M2 48H48M2 48L14.5922 36.3072C14.7772 36.1355 15.0203 36.04 15.2727 36.04H35.6258C35.891 36.04 36.1454 36.1454 36.3329 36.3329L48 48M48 48V2" stroke="black" stroke-width="2.5"/>
<path d="M47 2H3C2.44772 2 2 2.44772 2 3V47C2 47.5523 2.44772 48 3 48H47C47.5523 48 48 47.5523 48 47V3C48 2.44772 47.5523 2 47 2Z" stroke="black" stroke-width="2.5"/>
<path d="M13.9609 35.0396V14.0396C13.9609 13.4873 14.4087 13.0396 14.9609 13.0396H35.9609C36.5132 13.0396 36.9609 13.4873 36.9609 14.0396V35.0396C36.9609 35.5918 36.5132 36.0396 35.9609 36.0396H14.9609C14.4087 36.0396 13.9609 35.5918 13.9609 35.0396Z" stroke="black" stroke-width="2.5"/>
</svg>
